<?xml version="1.0" encoding="UTF-8"?>
<!DOCTYPE svg PUBLIC "-//W3C//DTD SVG 1.1//EN" "http://www.w3.org/Graphics/SVG/1.1/DTD/svg11.dtd">
<!-- Creator: CorelDRAW X7 -->
<svg xmlns="http://www.w3.org/2000/svg" xml:space="preserve" width="0.735256in" height="0.80689in" version="1.1" style="shape-rendering:geometricPrecision; text-rendering:geometricPrecision; image-rendering:optimizeQuality; fill-rule:evenodd; clip-rule:evenodd"
viewBox="0 0 839 921"
 xmlns:xlink="http://www.w3.org/1999/xlink">
 <defs>
  <style type="text/css">
   <![CDATA[
    .str0 {stroke:#B58A37;stroke-width:7.92366}
    .str1 {stroke:#99BD41;stroke-width:7.92366}
    .fil14 {fill:none}
    .fil10 {fill:#4B4B4D}
    .fil16 {fill:#84716B}
    .fil3 {fill:#84716B}
    .fil4 {fill:#DE7B32}
    .fil9 {fill:#DE7B32}
    .fil15 {fill:#A8CF45}
    .fil2 {fill:#99C748}
    .fil7 {fill:#3E4095}
    .fil12 {fill:#201E1E}
    .fil5 {fill:#201E1E}
    .fil1 {fill:#8D5240}
    .fil8 {fill:#9CC715}
    .fil11 {fill:#B7D333}
    .fil13 {fill:#CC9933}
    .fil6 {fill:#F8C399}
    .fil0 {fill:#201E1E;fill-opacity:0.501961}
   ]]>
  </style>
 </defs>
 <g id="Layer_x0020_1">
  <metadata id="CorelCorpID_0Corel-Layer"/>
  <g id="_529428838608">
   <polygon class="fil0" points="338,861 636,891 407,921 17,889 "/>
   <polygon class="fil1" points="150,784 182,784 173,893 161,893 "/>
   <polygon class="fil1" points="285,782 328,782 319,892 294,892 "/>
   <polygon class="fil1" points="414,783 457,783 448,892 423,892 "/>
   <path class="fil2" d="M410 788l-319 0 0 -248 95 -64 59 0 34 -3 -4 -107c0,-25 14,-39 49,-37l283 0 -19 158 -139 2 -39 51 0 248z"/>
   <polygon class="fil3" points="560,782 602,782 594,892 569,892 "/>
   <path class="fil4" d="M39 850l54 5c2,-80 28,-159 25,-229l76 7 143 0 -6 -79 -258 -2c-11,2 -18,9 -22,21l-1 248 -11 29z"/>
   <path class="fil4" d="M111 851l53 5c2,-79 28,-157 24,-225l75 6 140 1 -5 -78 -254 -2c-10,2 -17,9 -21,20l-1 244 -11 29z"/>
   <path class="fil5" d="M160 883c-18,7 -51,6 -86,5 3,-12 13,-22 30,-30 11,-3 22,5 33,7l25 -6 -2 12 0 12z"/>
   <path class="fil5" d="M89 883c-18,7 -52,6 -88,5 4,-12 14,-22 31,-30 11,-4 22,4 33,7l25 -7 -1 13 0 12z"/>
   <path class="fil1" d="M323 68c-4,-1 2,-9 0,-16 -2,-7 -1,-22 6,-24 5,-14 19,-10 20,-16 2,-11 19,-11 30,-12 11,-1 53,2 61,8 11,8 35,-2 38,17 0,6 11,8 13,16 3,10 8,13 11,27 5,32 3,21 -3,50 -6,35 -3,44 -36,68 -9,7 -5,6 -18,13 -22,12 -6,8 -23,22 -8,8 -32,14 -43,14 -27,-1 -22,-8 -26,-9 -1,0 -10,-16 -16,-20 -4,-3 -16,-36 -18,-44 -5,-14 -5,-76 2,-89 0,-1 0,-3 0,-5l2 0z"/>
   <path class="fil6" d="M328 50c-2,22 -12,23 -12,56 0,18 -2,36 2,53 4,17 13,32 24,46 18,22 14,13 47,13 15,0 23,-14 33,-23 18,-15 12,-3 24,-31 17,-42 -1,-35 0,-61 0,-1 -6,-22 -6,-26 1,-7 -9,-32 -20,-33 -4,-1 -7,-12 -22,-2 -2,2 -8,-1 -19,5 -5,2 -52,9 -51,3z"/>
   <path class="fil1" d="M351 95c0,-11 -23,-11 -23,-1 0,1 23,1 23,1z"/>
   <path class="fil1" d="M382 91c3,-5 31,-7 31,5 0,2 -10,-2 -16,-2 -10,0 -20,2 -15,-3z"/>
   <path class="fil1" d="M341 108c-10,7 -2,36 6,17 0,-1 0,-20 -6,-17z"/>
   <path class="fil1" d="M392 120c0,-30 21,13 4,11 -3,-1 -4,-10 -4,-11z"/>
   <path class="fil1" d="M358 189c0,-1 17,4 22,2 3,-1 15,-11 11,2 -1,4 -22,7 -27,1 -2,-3 -7,-5 -6,-5z"/>
   <path class="fil1" d="M359 140c-2,0 -14,30 -8,29 5,-1 41,2 6,-4 -10,-1 7,-24 2,-25z"/>
   <path class="fil6" d="M452 128c-1,1 -2,22 -4,26 -1,1 0,1 1,1 20,5 22,-33 20,-36 -14,-18 -12,5 -17,9z"/>
   <path class="fil7" d="M375 246c4,0 -11,11 -11,13 1,7 -25,14 -30,21 0,0 -20,-2 -23,21 -4,20 -13,35 -16,62 -1,4 -10,36 -10,36 7,0 15,7 30,1 15,-6 50,5 72,-6 12,-5 36,3 48,11 6,4 26,9 34,10 25,2 12,8 21,-23 2,-5 16,-80 16,-81 1,-12 9,-23 -6,-30 -8,-3 -11,0 -24,-8 -6,-5 -16,-11 -22,-13 -18,-4 -13,-3 -20,-17 -1,-1 -27,0 -34,-1 1,2 -21,4 -25,4z"/>
   <path class="fil7" d="M303 374c-1,5 -6,59 -6,67 0,23 -4,45 -13,66 -4,12 -19,27 -19,29 0,0 -8,8 -9,9 -7,9 -1,3 19,8 20,5 15,6 38,8 7,0 8,6 34,6 19,0 23,-1 40,-3 12,-2 8,0 12,-19 9,-32 15,-36 26,-62 1,-3 6,-17 5,-20l-1 1c2,-2 14,-84 16,-88 5,-7 8,-45 13,-47 0,-1 -32,-1 -34,-1 -23,0 -48,-3 -69,-2 -25,2 -19,-4 -32,-4 -4,0 -20,48 -20,52z"/>
   <path class="fil6" d="M477 447c-1,-1 -2,11 -5,15 -8,12 -9,18 -23,35 -28,35 -5,13 -39,31 0,0 -25,1 -29,2 -29,3 -52,9 -83,7 -10,0 -11,4 -26,-1 -4,-1 -5,3 -14,-4 -7,-5 -25,5 -31,9 -6,4 -13,-6 3,-17 -14,3 -15,9 -20,-5 -1,-1 -6,-4 -7,-12 0,-5 -11,-9 5,-17 9,-4 25,-7 35,-13 18,-10 25,2 30,-25 2,-10 -1,-13 6,-23 3,0 -5,-7 15,-3 10,2 5,21 5,33 0,4 -14,45 -16,48 -1,1 -29,9 9,9 14,0 15,-8 27,-8 0,0 65,-20 73,-24 6,-3 34,-8 36,-13 2,-9 1,-33 9,-37 2,-8 5,-3 19,0 5,1 19,5 20,11l1 2z"/>
   <path class="fil6" d="M375 235c-1,16 0,15 -2,33 -4,41 16,23 17,19 2,-11 42,-30 42,-44 0,-70 -3,-26 -13,-26 0,0 -16,8 -18,9 -12,5 -13,-1 -23,8 -1,1 -3,1 -3,1z"/>
   <path class="fil8" d="M463 786l-53 2 -18 -264c-1,-4 -2,-7 -2,-12 0,-21 17,-38 37,-40l1 0 0 0c1,0 2,0 3,0 3,0 5,0 8,0l44 3 -20 311z"/>
   <path class="fil9" d="M436 435c14,3 28,6 41,12 5,2 5,-24 7,-27 8,-11 -28,-10 -32,-12 0,0 -13,-2 -13,1 0,5 -5,26 -3,26z"/>
   <polygon class="fil10" points="0,431 175,433 227,552 316,552 317,557 220,558 50,557 "/>
   <path class="fil9" d="M285 399c-5,-1 -6,0 -7,10 -2,17 -6,19 18,21 5,1 3,-8 3,-13 0,-18 7,-18 -10,-19 -1,0 -2,1 -4,1z"/>
   <path class="fil11" d="M463 786l176 0 24 -407 -1 0c1,-2 1,-5 1,-7 0,-25 -20,-44 -44,-44 -24,0 -44,19 -44,43l-1 0 0 108 -59 -4c-5,-1 -11,-2 -16,-2 -4,0 -8,0 -11,1l0 0 0 0c-21,4 -37,21 -41,42l-1 1 1 3c-1,2 -1,3 -1,5 0,4 1,7 2,11l15 250z"/>
   <polygon class="fil12" points="0,432 173,436 227,553 316,554 317,558 220,559 50,558 "/>
   <g>
    <path class="fil13" d="M752 820l-19 0c-11,-109 125,-161 104,-97 -17,49 -76,59 -85,97z"/>
    <path class="fil14 str0" d="M805 719c-18,7 -61,78 -63,97"/>
    <path class="fil15" d="M734 813l-22 0c-53,-87 -53,-127 6,-115 -3,-42 -4,-88 16,-89 84,-3 -5,131 0,204z"/>
    <path class="fil14 str1" d="M749 642c0,53 0,57 -23,106 -3,7 -8,58 -5,65l2 0"/>
    <polygon class="fil16" points="688,809 768,809 762,892 702,892 "/>
   </g>
  </g>
 </g>
</svg>
